<svg width="24" height="24" viewBox="0 0 24 24" fill="none" xmlns="http://www.w3.org/2000/svg">
<path fill-rule="evenodd" clip-rule="evenodd" d="M5 12C5 7.02944 9.02944 3 14 3C14.5523 3 15 3.44772 15 4C15 4.55228 14.5523 5 14 5C10.134 5 7 8.13401 7 12C7 15.866 10.134 19 14 19C14.5523 19 15 19.4477 15 20C15 20.5523 14.5523 21 14 21C9.02944 21 5 16.9706 5 12Z" fill="#898989"/>
<path fill-rule="evenodd" clip-rule="evenodd" d="M8 11.875C8 8.63033 10.6303 6 13.875 6C17.1197 6 19.75 8.63033 19.75 11.875C19.75 15.1197 17.1197 17.75 13.875 17.75C10.6303 17.75 8 15.1197 8 11.875ZM13.875 8C11.7349 8 10 9.7349 10 11.875C10 14.0151 11.7349 15.75 13.875 15.75C16.0151 15.75 17.75 14.0151 17.75 11.875C17.75 9.7349 16.0151 8 13.875 8Z" fill="#898989"/>
<path fill-rule="evenodd" clip-rule="evenodd" d="M7 12C7 12.5523 6.55228 13 6 13L1 13C0.447715 13 -6.78525e-08 12.5523 -4.37114e-08 12C-1.95703e-08 11.4477 0.447715 11 1 11L6 11C6.55228 11 7 11.4477 7 12Z" fill="#898989"/>
<path fill-rule="evenodd" clip-rule="evenodd" d="M24 12C24 12.5523 23.5523 13 23 13L19 13C18.4477 13 18 12.5523 18 12C18 11.4477 18.4477 11 19 11L23 11C23.5523 11 24 11.4477 24 12Z" fill="#898989"/>
</svg>
